<svg version="1.1" id="Uploaded to svgrepo.com" xmlns="http://www.w3.org/2000/svg" xmlns:xlink="http://www.w3.org/1999/xlink" x="0px" y="0px"
	 width="32px" height="32px" stroke="#fff" viewBox="0 0 32 32" style="enable-background:new 0 0 32 32;" xml:space="preserve">
<style type="text/css">
	.hatch_een{fill:#265AA5;}
	.hatch_twee{fill:#FFC5BB;}
</style>
<g>
	<path class="hatch_twee" d="M18.576,21.76L14.336,26H13l0.009-0.086l5.439-5.439L18.576,21.76z M18.198,10.138L19,8h-0.078l-4,4
		h1.414L18.198,10.138z M16.336,8H15h-0.078l-1.398,1.398l0.386,1.028L16.336,8z M16.336,16h-1.414l-1.025,1.025l-0.157,1.571
		L16.336,16z M18.212,18.124l-0.129-1.286l-4.631,4.631l-0.157,1.571L18.212,18.124z M18.94,25.397l-0.129-1.285L16.922,26h1.414
		L18.94,25.397z"/>
	<path class="hatch_een" d="M22,28v-1c0-0.552-0.448-1-1-1h-1.016c0-0.034-0.979-10-0.979-10H20c0.552,0,1-0.448,1-1v-2
		c0-0.552-0.448-1-1-1h-1.432l1.368-3.649c0.115-0.307,0.072-0.651-0.114-0.921C19.635,7.161,19.328,7,19,7h-1V6h1
		c0.552,0,1-0.448,1-1V3c0-0.552-0.448-1-1-1h-1V1c0-0.552-0.448-1-1-1h-2c-0.552,0-1,0.448-1,1v1h-1c-0.552,0-1,0.448-1,1v2
		c0,0.552,0.448,1,1,1h1v1h-1c-0.328,0-0.635,0.161-0.822,0.43c-0.187,0.27-0.23,0.614-0.114,0.921L13.432,12H12
		c-0.552,0-1,0.448-1,1v2c0,0.552,0.448,1,1,1h0.995c0,0-0.979,9.966-0.979,10H11c-0.552,0-1,0.448-1,1v1c-0.552,0-1,0.448-1,1v2
		c0,0.552,0.448,1,1,1h12c0.552,0,1-0.448,1-1v-2C23,28.448,22.552,28,22,28z M13,5V3h2V1h2v2h2v2h-2v2h-2V5H13z M13,8h6l-1.5,4h-3
		L13,8z M12,13h8v2h-8V13z M14,16h4l1,10h-6L14,16z M22,31H10v-2h1v-2h10v2h1V31z"/>
</g>
</svg>