<?xml version="1.0" encoding="iso-8859-1"?>
<!-- Generator: Adobe Illustrator 16.0.0, SVG Export Plug-In . SVG Version: 6.00 Build 0)  -->
<!DOCTYPE svg PUBLIC "-//W3C//DTD SVG 1.1//EN" "http://www.w3.org/Graphics/SVG/1.1/DTD/svg11.dtd">
<svg version="1.1" id="Capa_1" xmlns="http://www.w3.org/2000/svg" xmlns:xlink="http://www.w3.org/1999/xlink" x="0px" y="0px"
	fill="#fff" width="331.099px" height="331.1px" viewBox="0 0 331.099 331.1" style="enable-background:new 0 0 331.099 331.1;"
	 xml:space="preserve">
<g>
	<g>
		<path d="M139.396,267.518c-15.261,0-27.67,12.411-27.67,27.67c0,15.265,12.409,27.67,27.67,27.67
			c15.252,0,27.67-12.405,27.67-27.67C167.066,279.929,154.647,267.518,139.396,267.518z"/>
		<path d="M262.986,267.518c-15.252,0-27.67,12.411-27.67,27.67c0,15.265,12.418,27.67,27.67,27.67
			c15.259,0,27.671-12.405,27.671-27.67C290.657,279.929,278.25,267.518,262.986,267.518z"/>
		<path d="M298.054,94.805l-0.606-0.123l-33.603,0.192c-2.606-0.24-5.819-0.204-7.345,0.012l-49.671,0.24l-49.135-0.21
			c-2.693-0.276-5.993-0.252-7.358-0.066l-34.194-0.168l-0.604,0.123c-12.586,2.492-22.677,10.541-28.259,21.08L63.39,13.001
			c-0.646-2.786-3.134-4.759-5.996-4.759H6.149C2.756,8.242,0,10.996,0,14.392c0,3.398,2.756,6.148,6.149,6.148h46.357
			l44.351,190.994c0,0.03,0.027,0.055,0.039,0.091c3.387,16.519,16.27,29.104,32.858,32.096c0.732,0.198,1.471,0.39,2.228,0.546
			l0.619,0.133l3.918-0.024l-0.036-6.149l0.817,6.149l69.463-0.349l69.529,0.349l0.024-6.149l0.757,6.149l3.915,0.024l0.624-0.133
			c0.757-0.156,1.489-0.348,2.156-0.553c16.753-2.996,29.705-15.708,33.008-32.365l13.535-68.329
			C334.708,120.826,320.236,99.203,298.054,94.805z"/>
	</g>
</g>
<g>
</g>
<g>
</g>
<g>
</g>
<g>
</g>
<g>
</g>
<g>
</g>
<g>
</g>
<g>
</g>
<g>
</g>
<g>
</g>
<g>
</g>
<g>
</g>
<g>
</g>
<g>
</g>
<g>
</g>
</svg>
