<svg width="197" height="51" viewBox="0 0 197 51" fill="none" xmlns="http://www.w3.org/2000/svg">
<path d="M16.5 49C15.5 41 14.5 38.5 15 37.5C15.5 36.5 16.5 36.5 17 37.5C17.5 38.5 16.5 41 16.5 49Z" fill="white"/>
<path d="M9.5 2C5.50001 7 5.00001 8.5 5.00001 8.5C5.00001 8.5 5.50001 14 7.00001 18C7.00001 18 9 17 10.5 17C6.75 19.2489 4 23 4 27C3 27.5 2 28.5 2 29.5C2.5 31 4 33.8333 6 34.5C7.00001 34.8333 8.50001 35 9.5 34.5C7 33.5 6 31.5 6 31.5C6 31.5 7.50001 33 10.5 33C12 33 13 34 14 35C13 35 12 35 11.5 35.5C11 40.5 12 46.5 14.5 49C12.5 48 11.5 47 9.5 45C9.5 45 11 46 12 46.5C11 43.5 10 39 10 36C8 36.5 6.49999 36.5 5 36C3.50001 35.5 0.5 31.5 0 29C7.62939e-06 27.5 0.999999 27 2 26.5C2.50001 25.5 2.50001 24.5 2.00001 23.5C2.00001 22.5 3 21 5 19.5C5 19.5 3.5 15 3.5 8.5L6.75 5L9.5 2Z" fill="#DD163B"/>
<path d="M10 31C5.99999 27 5.5 22 10.5 20.5C12 23.5 15.5 26 18 26L18 27C15.5 27 14 29.5 10 31Z" fill="white"/>
<path d="M19.567 49C20.567 41 21.567 38.5 21.067 37.5C20.567 36.5 19.567 36.5 19.067 37.5C18.567 38.5 19.567 41 19.567 49Z" fill="white"/>
<path d="M18 30.5C17.5 32.5 16.5 33 16.5 33C17.5 34 18.5 34 19.5 33C19.5 33 18.5 32.5 18 30.5Z" fill="white"/>
<path d="M26.5 2C30.5 7 31 8.5 31 8.5C31 8.5 30.5 14 29 18C29 18 27 17 25.5 17C29.25 19.2489 32 23 32 27C33 27.5 34 28.5 34 29.5C33.5 31 32 33.8333 30 34.5C29 34.8333 27.5 35 26.5 34.5C29 33.5 30 31.5 30 31.5C30 31.5 28.5 33 25.5 33C24 33 23 34 22 35C23 35 24 35 24.5 35.5C25 40.5 24 46.5 21.5 49C23.5 48 24.5 47 26.5 45C26.5 45 25 46 24 46.5C25 43.5 26 39 26 36C28 36.5 29.5 36.5 31 36C32.5 35.5 35.5 31.5 36 29C36 27.5 35 27 34 26.5C33.5 25.5 33.5 24.5 34 23.5C34 22.5 33 21 31 19.5C31 19.5 32.5 15 32.5 8.5L29.25 5L26.5 2Z" fill="#DD163B"/>
<path d="M9.99999 22C11.5 24.5 13.5 25.5 17 26.5C14 26.5 12.4031 28.4585 10.5692 28C9.26257 27.6733 7.49999 24 9.99999 22Z" fill="#171D21"/>
<path d="M26 31C30 27 30.5 22 25.5 20.5C24 23.5 20.5001 26 18 26L18 27C20.5 27 22 29.5 26 31Z" fill="white"/>
<path d="M26 22C24.5 24.5 22.5 25.5 19 26.5C22 26.5 23.5969 28.4585 25.4308 28C26.7375 27.6733 28.5 24 26 22Z" fill="#171D21"/>
<path d="M54.32 32.304C53.1673 32.304 52.0843 32.1837 51.071 31.943C50.0577 31.6897 49.2217 31.3603 48.563 30.955L50.292 27.649C51.7233 28.4723 53.218 28.884 54.776 28.884C55.346 28.884 55.783 28.8143 56.087 28.675C56.391 28.5357 56.543 28.3457 56.543 28.105C56.543 27.877 56.3847 27.6933 56.068 27.554C55.764 27.4147 55.2763 27.2627 54.605 27.098C53.7183 26.87 52.9837 26.642 52.401 26.414C51.8183 26.1733 51.3053 25.8123 50.862 25.331C50.4313 24.837 50.216 24.191 50.216 23.393C50.216 22.3923 50.482 21.5183 51.014 20.771C51.5587 20.011 52.3377 19.4283 53.351 19.023C54.3643 18.605 55.5613 18.396 56.942 18.396C57.93 18.396 58.8483 18.4973 59.697 18.7C60.5583 18.89 61.2993 19.1687 61.92 19.536L60.305 22.804C59.7857 22.4747 59.2093 22.2277 58.576 22.063C57.9553 21.8983 57.3157 21.816 56.657 21.816C56.0363 21.816 55.555 21.9047 55.213 22.082C54.871 22.2593 54.7 22.4683 54.7 22.709C54.7 22.9497 54.852 23.1397 55.156 23.279C55.4727 23.4183 55.9857 23.5703 56.695 23.735C57.5563 23.9377 58.2783 24.153 58.861 24.381C59.4563 24.609 59.9693 24.9637 60.4 25.445C60.8307 25.9263 61.046 26.5597 61.046 27.345C61.046 28.333 60.7737 29.2007 60.229 29.948C59.6843 30.6953 58.9053 31.278 57.892 31.696C56.8787 32.1013 55.688 32.304 54.32 32.304ZM131.617 22.082L131.161 24.362H136.709L136.025 27.744H130.496L129.641 32H125.157L127.817 18.7H138.628L137.944 22.082H131.617Z" fill="#DD163B"/>
<path d="M73.3623 32.247C73.6916 32.247 74.0273 32.171 74.3693 32.019C74.724 31.8797 75.047 31.6833 75.3383 31.43L76.9533 34.033C76.472 34.4763 75.883 34.8057 75.1863 35.021C74.5023 35.249 73.755 35.363 72.9443 35.363C71.6143 35.363 70.468 35.0907 69.5053 34.546C68.5426 34.0013 67.751 33.1653 67.1303 32.038C65.7243 31.6707 64.6223 30.9867 63.8243 29.986C63.039 28.9727 62.6463 27.763 62.6463 26.357C62.6463 24.8117 63.001 23.4373 63.7103 22.234C64.4323 21.018 65.4266 20.0743 66.6933 19.403C67.9726 18.7317 69.4166 18.396 71.0253 18.396C72.3806 18.396 73.565 18.6493 74.5783 19.156C75.6043 19.65 76.3896 20.3467 76.9343 21.246C77.4916 22.1453 77.7703 23.1777 77.7703 24.343C77.7703 25.559 77.5423 26.6737 77.0863 27.687C76.643 28.7003 76.0096 29.568 75.1863 30.29C74.3756 30.9993 73.4193 31.525 72.3173 31.867C72.558 32.1203 72.9063 32.247 73.3623 32.247ZM70.6453 22.025C69.936 22.025 69.3153 22.2087 68.7833 22.576C68.264 22.9433 67.865 23.4373 67.5863 24.058C67.3076 24.6787 67.1683 25.3563 67.1683 26.091C67.1683 26.8763 67.3963 27.5033 67.8523 27.972C68.321 28.4407 68.9606 28.675 69.7713 28.675C70.4806 28.675 71.095 28.4913 71.6143 28.124C72.1463 27.7567 72.5516 27.2627 72.8303 26.642C73.109 26.0213 73.2483 25.3437 73.2483 24.609C73.2483 23.8237 73.014 23.1967 72.5453 22.728C72.0893 22.2593 71.456 22.025 70.6453 22.025ZM85.0978 32.304C83.9071 32.304 82.8748 32.1077 82.0008 31.715C81.1394 31.3097 80.4744 30.7397 80.0058 30.005C79.5498 29.2703 79.3218 28.409 79.3218 27.421C79.3218 27.0157 79.3724 26.547 79.4738 26.015L80.9368 18.7H85.4208L83.9768 25.939C83.9008 26.2937 83.8628 26.6167 83.8628 26.908C83.8628 27.5033 84.0148 27.9467 84.3188 28.238C84.6228 28.5293 85.0661 28.675 85.6488 28.675C86.3074 28.675 86.8204 28.466 87.1878 28.048C87.5551 27.63 87.8401 26.927 88.0428 25.939L89.4868 18.7H93.8948L92.3938 26.205C91.9884 28.219 91.1778 29.739 89.9618 30.765C88.7458 31.791 87.1244 32.304 85.0978 32.304ZM103.082 29.682H98.0089L96.6789 32H91.9479L100.422 18.7H104.83L107.984 32H103.519L103.082 29.682ZM102.455 26.452L101.809 23.051L99.8519 26.452H102.455ZM111.739 18.7H117.743C119.137 18.7 120.34 18.928 121.353 19.384C122.379 19.84 123.165 20.4923 123.709 21.341C124.254 22.1897 124.526 23.1903 124.526 24.343C124.526 25.8757 124.172 27.2247 123.462 28.39C122.753 29.5427 121.765 30.4357 120.498 31.069C119.244 31.6897 117.813 32 116.204 32H109.079L111.739 18.7ZM116.356 28.504C117.509 28.504 118.402 28.143 119.035 27.421C119.681 26.6863 120.004 25.749 120.004 24.609C120.004 23.8363 119.764 23.241 119.282 22.823C118.814 22.405 118.13 22.196 117.23 22.196H115.52L114.266 28.504H116.356ZM145.25 32.304C143.895 32.304 142.704 32.057 141.678 31.563C140.665 31.0563 139.88 30.3533 139.322 29.454C138.778 28.5547 138.505 27.5223 138.505 26.357C138.505 24.8117 138.86 23.4373 139.569 22.234C140.291 21.018 141.286 20.0743 142.552 19.403C143.832 18.7317 145.276 18.396 146.884 18.396C148.24 18.396 149.424 18.6493 150.437 19.156C151.463 19.65 152.249 20.3467 152.793 21.246C153.351 22.1453 153.629 23.1777 153.629 24.343C153.629 25.8883 153.268 27.269 152.546 28.485C151.837 29.6883 150.843 30.6257 149.563 31.297C148.297 31.9683 146.859 32.304 145.25 32.304ZM145.63 28.675C146.34 28.675 146.954 28.4913 147.473 28.124C148.005 27.7567 148.411 27.2627 148.689 26.642C148.968 26.0213 149.107 25.3437 149.107 24.609C149.107 23.8237 148.873 23.1967 148.404 22.728C147.948 22.2593 147.315 22.025 146.504 22.025C145.795 22.025 145.174 22.2087 144.642 22.576C144.123 22.9433 143.724 23.4373 143.445 24.058C143.167 24.6787 143.027 25.3563 143.027 26.091C143.027 26.8763 143.255 27.5033 143.711 27.972C144.18 28.4407 144.82 28.675 145.63 28.675ZM168.405 23.07C168.405 24.248 168.088 25.2803 167.455 26.167C166.834 27.041 165.954 27.6933 164.814 28.124L167.037 32H162.382L160.501 28.656H159.399L158.734 32H154.25L156.91 18.7H162.876C164.624 18.7 165.979 19.0863 166.942 19.859C167.917 20.619 168.405 21.6893 168.405 23.07ZM163.864 23.507C163.864 22.6077 163.306 22.158 162.192 22.158H160.691L160.064 25.274H161.907C162.527 25.274 163.009 25.122 163.351 24.818C163.693 24.5013 163.864 24.0643 163.864 23.507ZM176.349 32.304C174.994 32.304 173.797 32.057 172.758 31.563C171.732 31.0563 170.934 30.3533 170.364 29.454C169.807 28.5547 169.528 27.5223 169.528 26.357C169.528 24.8117 169.883 23.4373 170.592 22.234C171.314 21.0307 172.308 20.0933 173.575 19.422C174.854 18.738 176.305 18.396 177.926 18.396C179.205 18.396 180.339 18.6303 181.327 19.099C182.315 19.555 183.05 20.2073 183.531 21.056L180.301 23.583C179.706 22.5443 178.819 22.025 177.641 22.025C176.944 22.025 176.324 22.196 175.779 22.538C175.234 22.88 174.81 23.3613 174.506 23.982C174.202 24.59 174.05 25.2867 174.05 26.072C174.05 26.8573 174.297 27.4907 174.791 27.972C175.298 28.4407 175.963 28.675 176.786 28.675C177.913 28.675 178.901 28.162 179.75 27.136L182.391 29.663C181.618 30.613 180.738 31.2907 179.75 31.696C178.775 32.1013 177.641 32.304 176.349 32.304ZM189.69 22.082L189.386 23.64H195.01L194.364 26.87H188.721L188.379 28.618H195.048L194.364 32H183.306L185.966 18.7H196.777L196.093 22.082H189.69Z" fill="white"/>
</svg>
