<?xml version="1.0" encoding="UTF-8"?> <svg xmlns="http://www.w3.org/2000/svg" xmlns:xlink="http://www.w3.org/1999/xlink" viewBox="0 0 200.004 200.005"> <defs> <style>.a{clip-path:url(#b);}.b,.c{fill:none;stroke-linecap:round;stroke-linejoin:round;stroke-miterlimit:10;stroke-width:6px;}.b{stroke:#ffffff;}.c{stroke:#e97420;}</style> <clipPath id="b"> <rect width="200.004" height="200.005"></rect> </clipPath> </defs> <g id="a" class="a"> <g transform="translate(17480.297 3416.002)"> <path class="b" d="M5.1,132.137V46.429A16.823,16.823,0,0,1,21.829,29.7H164.371A16.823,16.823,0,0,1,181.1,46.429" transform="translate(-17472.975 -3419.954)"></path> <path class="b" d="M5.1,128.137a16.823,16.823,0,0,0,16.729,16.729H164.371A16.823,16.823,0,0,0,181.1,128.137V42.2" transform="translate(-17472.975 -3403.808)"></path> <path class="c" d="M58.688,82.267H14V40.1H149.667V82.267H58.688Z" transform="translate(-17461.48 -3406.521)"></path> <line class="b" x1="75.396" transform="translate(-17417.459 -3233.275)"></line> <g transform="translate(-17402.793 -3258.941)"> <line class="b" y2="22.917" transform="translate(0 0)"></line> <line class="b" y2="22.917" transform="translate(46.063 0)"></line> </g> <line class="c" x2="21.542" transform="translate(-17448.395 -3285.296)"></line> <line class="c" y1="42.167" x2="135.667" transform="translate(-17447.48 -3366.42)"></line> <rect class="c" width="64.854" height="15.812" transform="translate(-17376.666 -3298.358)"></rect> <line class="b" x2="135.667" transform="translate(-17447.48 -3309.587)"></line> <line class="b" x2="58.438" transform="translate(-17447.48 -3296.983)"></line> </g> </g> </svg> 